
        <svg xmlns="http://www.w3.org/2000/svg" xmlns:xlink="http://www.w3.org/1999/xlink" version="1.1" width="3319.01318554559" 
        height="893.2369195276522" viewBox="0 0 3319.01318554559 893.2369195276522">
			
			<g transform="scale(15.950659277279502) translate(10, 10)">
				<defs id="SvgjsDefs3430"></defs><g id="SvgjsG3431" featureKey="nameLeftFeature-0" transform="matrix(2.5714285373687744,0,0,2.5714285373687744,-3.0857150214059015,-15.42857142857143)" fill="#235784"><path d="M8.92 12.24 c1.48 0.4 2.88 1.72 2.88 3.66 c0 2.54 -1.6 4.1 -5.08 4.1 l-5.52 0 l0 -14 l5.22 0 c2.9 0 4.36 1.64 4.36 3.52 c0 1.48 -0.96 2.32 -1.86 2.72 z M6.14 8.56 l-2.02 0 l0 2.82 l2.02 0 c1.24 0 1.74 -0.58 1.74 -1.42 c0 -0.9 -0.58 -1.4 -1.74 -1.4 z M6.56 17.44 c1.6 0 2.32 -0.66 2.32 -1.9 c0 -1.06 -0.72 -1.8 -2.44 -1.8 l-2.32 0 l0 3.7 l2.44 0 z M22.259999999999998 6 l2.92 0 l0 14 l-2.92 0 l0 -5.66 l-5.64 0 l0 5.66 l-2.92 0 l0 -14 l2.92 0 l0 5.66 l5.64 0 l0 -5.66 z"></path></g><g id="SvgjsG3432" featureKey="inlineSymbolFeature-0" transform="matrix(139.7515106201172,0,0,139.7515106201172,67,0.000286598537835519)" fill="#235784"><defs xmlns="http://www.w3.org/2000/svg"></defs><g xmlns="http://www.w3.org/2000/svg"><polygon class="fil0" points="0.0620441,0.138163 0.113938,0.138163 0.113938,0.163872 0.143561,0.163872 0.143561,0.116931 0.162986,0.116813 0.162986,0.138163 0.247255,0.138163 0.309299,0.257598 0.300016,0.257598 0.278169,0.215707 0.245566,0.153195 0.243483,0.149203 0.241401,0.153195 0.208802,0.215707 0.186955,0.257598 -0,0.257598 " style="fill: #235784;"></polygon><path class="fil0" d="M0.183892 0.0199648c0.00685442,-0.00250791 0.0144411,-0.00293705 0.0215042,-0.00106694 0.00484258,-0.0170514 0.0246066,-0.0248113 0.039032,-0.0137521 0.0282956,0.021831 0.00411816,0.0705206 -0.0225908,0.0583275 -0.0100552,0.0109686 -0.0268311,0.00896074 -0.0392446,0.00398037 -0.00707489,0.00533471 -0.017201,0.00992139 -0.0262366,0.00953555 -0.0142088,0.018768 -0.0306303,0.0171813 -0.0290988,0.00153939 0.000980327,-0.0096143 0.00811821,-0.0184018 0.0166774,-0.0224885 0.0036654,-0.0086694 0.0118427,-0.0149923 0.0208192,-0.0174018 0.00276381,-0.0089135 0.0105946,-0.0155238 0.019138,-0.0186735z" style="fill: #235784;"></path></g></g><g id="SvgjsG3433" featureKey="nameRightFeature-0" transform="matrix(2.5714285373687744,0,0,2.5714285373687744,111.9142837524414,-15.42857142857143)" fill="#235784"><path d="M16.2 6 l0 14 l-3 0 l0 -7.44 l-3.26 7.44 l-2.52 0 l-3.22 -7.4 l0 7.4 l-3 0 l0 -14 l2.88 0 l4.62 10.1 l4.62 -10.1 l2.88 0 z M29.620000000000005 20 l-3.1 0 l-2.98 -4.66 l-0.04 0 l-1.98 0 l0 4.66 l-2.92 0 l0 -14 l4.9 0 c3.14 0 5.18 1.9 5.18 4.76 c0 1.9 -0.92 3.32 -2.48 4.04 z M21.520000000000003 8.68 l0 4.14 l1.8 0 c1.44 0 2.44 -0.56 2.44 -2.06 c0 -1.48 -1 -2.08 -2.44 -2.08 l-1.8 0 z"></path></g>
			</g>
		</svg>
	